<svg width="883" height="765" viewBox="0 0 883 765" fill="none" xmlns="http://www.w3.org/2000/svg">
<g clip-path="url(#clip0_55_159)">
<path d="M329.604 342.483C329.975 342.28 330.339 342.07 330.695 341.853C331.608 337.478 332.522 333.104 333.435 328.729C338.812 334.314 349.385 333.26 353.553 326.724C339.019 295.721 319.906 267.079 296.857 241.758C291.832 236.211 289.013 229.017 288.932 221.533C288.851 214.049 291.513 206.795 296.417 201.141C296.505 201.038 296.592 200.935 296.679 200.83C309.694 196.434 322.019 190.211 333.284 182.346C294.654 120.282 220.994 70.976 203.486 0C150.813 56.5643 144.9 76.4857 92.2278 133.05C92.2278 133.05 42.3528 178.055 31.5877 202.241C34.2328 205.02 57.9135 211.687 58.8239 217.15C76.8834 218.598 108.171 198.803 108.171 198.803C108.171 198.803 39.881 271.608 19.1475 316.452C17.2804 320.49 15.5072 325.101 17.0713 329.266C18.3201 332.591 22.7998 334.508 25.6851 333.187C22.2385 336.511 19.4711 340.474 17.5371 344.855C29.3271 352.824 46.7143 351.072 56.6786 340.913C53.7907 346.308 50.9028 351.703 48.015 357.099L48.0201 357.111C51.9216 358.386 55.4229 360.657 58.1781 363.699C60.9333 366.741 62.8471 370.45 63.7303 374.458C64.6136 378.467 64.4358 382.636 63.2144 386.555C61.993 390.473 59.7704 394.005 56.7661 396.802C38.8453 413.469 22.4705 430.988 16.4704 442.525C10.8258 453.379 68.783 466.462 81.8191 465.926C94.855 465.389 107.04 459.661 118.814 454.039C118.24 459.408 119.267 464.826 121.765 469.613C128.213 471.177 134.909 471.438 141.459 470.379C148.009 469.32 154.281 466.963 159.908 463.446C159.205 477.966 184.229 483.712 189.932 470.341C187.792 478.201 198.194 483.068 206.215 484.492C229.102 488.555 256.72 491.025 271.612 473.178C288.753 490.461 320.163 490.133 337.204 472.91C335.527 475.881 338.094 480.882 341.892 481.67C346.367 482.598 350.72 479.939 354.52 477.399C371.72 465.9 388.92 454.401 406.12 442.902L326.927 389.515C309.692 377.897 311.378 352.475 329.604 342.483Z" fill="#F2F2F2"/>
<path d="M196.767 763.795H185.581C180.282 636.618 176.467 514.917 185.581 440.965H196.767L196.767 763.795Z" fill="#F2F2F2"/>
<path d="M772.566 737.31C773.306 737.344 774.039 737.15 774.665 736.754C775.291 736.357 775.78 735.778 776.065 735.095C776.351 734.411 776.42 733.656 776.262 732.932C776.105 732.208 775.729 731.55 775.185 731.047C775.094 730.685 775.028 730.425 774.937 730.063C774.97 729.984 775.002 729.906 775.035 729.827C775.781 728.066 777.03 726.564 778.626 725.511C780.223 724.458 782.094 723.9 784.007 723.907C785.919 723.914 787.787 724.486 789.375 725.551C790.963 726.616 792.201 728.127 792.934 729.893C795.861 736.944 799.588 744.006 800.506 751.461C800.91 754.756 800.74 758.097 800.002 761.334C806.878 746.335 810.448 730.034 810.471 713.535C810.473 709.394 810.243 705.257 809.782 701.143C809.402 697.77 808.874 694.42 808.198 691.095C804.513 673.054 796.601 656.144 785.111 641.754C779.55 638.72 775.053 634.054 772.226 628.385C771.201 626.347 770.477 624.172 770.076 621.927C770.704 622.009 771.341 622.06 771.969 622.101C772.164 622.112 772.37 622.122 772.565 622.132L772.639 622.136C773.328 622.167 774.012 621.998 774.607 621.649C775.203 621.3 775.685 620.787 775.996 620.171C776.307 619.555 776.433 618.862 776.359 618.176C776.285 617.489 776.014 616.839 775.579 616.303C775.308 615.97 775.037 615.637 774.766 615.304C774.354 614.79 773.933 614.286 773.521 613.772C773.474 613.723 773.429 613.671 773.388 613.617C772.915 613.031 772.442 612.455 771.969 611.869C772.832 610.529 773.994 609.406 775.362 608.589C780.103 605.812 786.644 607.735 790.068 612.023C793.503 616.312 794.151 622.328 792.958 627.686C791.785 632.245 789.844 636.571 787.219 640.479C787.477 640.808 787.744 641.126 788.001 641.456C792.701 647.499 796.797 653.988 800.231 660.83C799.396 653.165 800.392 645.411 803.139 638.206C805.922 631.491 811.139 625.836 815.734 620.031C821.252 613.058 832.569 616.101 833.541 624.94C833.55 625.026 833.559 625.111 833.568 625.197C832.886 625.582 832.218 625.99 831.564 626.423C830.743 626.971 830.107 627.755 829.739 628.671C829.371 629.588 829.289 630.594 829.502 631.558C829.716 632.522 830.216 633.399 830.936 634.074C831.657 634.75 832.564 635.191 833.54 635.342L833.64 635.357C833.397 637.817 832.968 640.254 832.355 642.648C830.58 649.333 827.443 655.578 823.141 660.993C818.839 666.408 813.465 670.876 807.355 674.117C806.954 674.323 806.563 674.528 806.162 674.724C809.612 684.501 811.776 694.685 812.6 705.02C813.066 711.117 813.039 717.242 812.518 723.335L812.548 723.119C813.865 716.344 817.479 710.23 822.781 705.811C830.655 699.343 841.78 696.961 850.275 691.761C851.178 691.182 852.228 690.872 853.301 690.87C854.374 690.867 855.425 691.172 856.33 691.747C857.236 692.322 857.958 693.144 858.412 694.116C858.866 695.089 859.032 696.17 858.891 697.234C858.88 697.31 858.868 697.385 858.856 697.461C857.59 697.977 856.357 698.571 855.164 699.24C854.482 699.625 853.814 700.034 853.16 700.466C852.339 701.014 851.703 701.798 851.335 702.715C850.967 703.631 850.884 704.637 851.098 705.601C851.312 706.565 851.811 707.442 852.532 708.118C853.253 708.793 854.16 709.235 855.136 709.385L855.236 709.4C855.308 709.411 855.37 709.421 855.442 709.431C853.278 714.598 850.241 719.353 846.464 723.489C841.798 728.496 836.159 732.497 829.892 735.247C823.625 737.996 816.862 739.437 810.019 739.481H810.008C808.151 747.553 805.459 755.411 801.977 762.928H773.285C773.182 762.609 773.09 762.28 772.997 761.961C775.653 762.128 778.319 761.969 780.936 761.488C778.807 758.876 776.679 756.243 774.55 753.631C774.502 753.582 774.458 753.531 774.416 753.477C773.336 752.14 772.246 750.813 771.167 749.476L771.166 749.475C771.108 745.377 771.579 741.288 772.565 737.311L772.566 737.31Z" fill="#F2F2F2"/>
<path d="M120.595 737.31C119.855 737.344 119.123 737.15 118.497 736.754C117.871 736.357 117.382 735.778 117.096 735.095C116.81 734.411 116.741 733.656 116.899 732.932C117.056 732.208 117.433 731.55 117.977 731.047C118.068 730.685 118.133 730.425 118.224 730.063C118.192 729.984 118.159 729.906 118.126 729.827C117.38 728.066 116.131 726.564 114.535 725.511C112.939 724.458 111.067 723.9 109.155 723.907C107.242 723.914 105.375 724.486 103.786 725.551C102.198 726.616 100.96 728.127 100.227 729.893C97.3001 736.944 93.573 744.006 92.6553 751.461C92.2511 754.756 92.4216 758.097 93.1592 761.334C86.2836 746.335 82.7132 730.034 82.6903 713.535C82.6888 709.394 82.9188 705.257 83.3793 701.143C83.7598 697.77 84.2877 694.42 84.963 691.095C88.6482 673.054 96.5605 656.144 108.05 641.754C113.611 638.72 118.108 634.054 120.936 628.385C121.96 626.347 122.684 624.172 123.085 621.927C122.458 622.009 121.82 622.06 121.193 622.101C120.997 622.112 120.792 622.122 120.596 622.132L120.523 622.136C119.833 622.167 119.149 621.998 118.554 621.649C117.958 621.3 117.476 620.787 117.165 620.171C116.855 619.555 116.729 618.862 116.803 618.175C116.877 617.489 117.148 616.839 117.582 616.303C117.853 615.97 118.124 615.637 118.395 615.304C118.807 614.79 119.228 614.286 119.64 613.772C119.687 613.723 119.732 613.671 119.773 613.617C120.247 613.031 120.72 612.455 121.193 611.869C120.329 610.529 119.168 609.406 117.799 608.589C113.058 605.812 106.518 607.735 103.093 612.023C99.6584 616.312 99.0106 622.328 100.203 627.686C101.377 632.245 103.317 636.571 105.942 640.479C105.685 640.808 105.417 641.126 105.16 641.456C100.46 647.499 96.3643 653.988 92.9305 660.83C93.7656 653.165 92.7689 645.411 90.0225 638.206C87.239 631.491 82.0219 625.836 77.4275 620.031C71.9089 613.058 60.5926 616.101 59.6204 624.94C59.611 625.026 59.6018 625.111 59.5928 625.197C60.2752 625.582 60.9432 625.99 61.5968 626.423C62.4179 626.971 63.0541 627.755 63.4221 628.671C63.7901 629.588 63.8727 630.594 63.6591 631.558C63.4455 632.522 62.9457 633.399 62.2251 634.074C61.5045 634.75 60.5967 635.191 59.6208 635.342L59.5209 635.357C59.764 637.817 60.1937 640.254 60.8063 642.648C62.5815 649.333 65.7184 655.578 70.0203 660.993C74.3223 666.408 79.6965 670.876 85.8061 674.117C86.2072 674.322 86.5981 674.528 86.9991 674.724C83.5492 684.5 81.3851 694.685 80.5615 705.02C80.0952 711.117 80.1227 717.242 80.6437 723.335L80.6129 723.119C79.2964 716.344 75.6822 710.23 70.3805 705.811C62.5061 699.343 51.3811 696.961 42.886 691.761C41.9832 691.182 40.9334 690.872 39.8605 690.87C38.7877 690.867 37.7364 691.171 36.8308 691.747C35.9251 692.322 35.2029 693.144 34.7492 694.116C34.2956 695.089 34.1294 696.17 34.2703 697.234C34.2817 697.31 34.2933 697.385 34.305 697.461C35.5714 697.977 36.8044 698.571 37.9969 699.24C38.6793 699.625 39.3473 700.034 40.0009 700.466C40.822 701.014 41.4582 701.798 41.8262 702.715C42.1942 703.631 42.2768 704.637 42.0632 705.601C41.8496 706.565 41.3498 707.442 40.6292 708.118C39.9086 708.793 39.0008 709.235 38.0249 709.385L37.9249 709.4C37.8529 709.411 37.7912 709.421 37.7193 709.431C39.883 714.598 42.9199 719.353 46.697 723.489C51.3629 728.496 57.0023 732.497 63.2693 735.247C69.5364 737.996 76.2991 739.437 83.1427 739.48H83.153C85.0108 747.553 87.7024 755.411 91.1847 762.927H119.876C119.979 762.609 120.072 762.28 120.164 761.961C117.509 762.128 114.842 761.969 112.225 761.488C114.354 758.876 116.483 756.243 118.611 753.631C118.659 753.582 118.704 753.531 118.745 753.477C119.825 752.14 120.915 750.813 121.995 749.476L121.995 749.475C122.053 745.377 121.583 741.288 120.596 737.311L120.595 737.31Z" fill="#F2F2F2"/>
<path d="M544.241 605.685L536.792 608.621L597.461 762.561L604.91 759.626L544.241 605.685Z" fill="#E6E6E6"/>
<path d="M494.981 759.625L502.43 762.561L563.099 608.62L555.65 605.685L494.981 759.625Z" fill="#E6E6E6"/>
<path d="M546.832 633.821C576.065 633.821 599.763 624.66 599.763 613.36C599.763 602.06 576.065 592.899 546.832 592.899C517.599 592.899 493.901 602.06 493.901 613.36C493.901 624.66 517.599 633.821 546.832 633.821Z" fill="#E6E6E6"/>
<path d="M590.999 622.057L506.313 611.9C502.401 611.431 498.62 610.196 495.186 608.266C491.752 606.335 488.731 603.748 486.297 600.65C483.863 597.552 482.062 594.006 480.999 590.212C479.936 586.419 479.63 582.453 480.099 578.541C480.568 574.63 481.803 570.849 483.733 567.415C485.664 563.98 488.251 560.96 491.349 558.526C494.447 556.091 497.993 554.291 501.787 553.228C505.58 552.164 509.546 551.858 513.458 552.327L598.144 562.484C606.044 563.432 613.244 567.479 618.16 573.735C623.076 579.991 625.306 587.943 624.358 595.843C623.411 603.743 619.364 610.943 613.108 615.859C606.852 620.775 598.899 623.005 590.999 622.057V622.057Z" fill="#2F2E41"/>
<path d="M574.396 409.081L586.808 421.121L602.675 428.159C601.289 429.118 593.984 527.55 603.396 531.647C611.411 535.135 603.243 538.02 603.52 546.14C603.797 554.26 604.834 570.96 604.834 570.96C560.782 587.919 543.683 589.561 518.076 560.464C517.9 558.832 518.286 557.19 519.171 555.808C520.055 554.427 521.386 553.389 522.941 552.867C528.62 550.675 519.946 536.223 524.574 534.535C529.202 532.848 525.365 512.935 525.365 512.935L515.508 468.07L513.094 461.293L525.549 423.089L539.607 419.786L546.541 407.469L574.396 409.081Z" fill="#E6E6E6"/>
<path d="M408.436 500C409.784 498.894 411.359 498.098 413.048 497.667C414.737 497.235 416.501 497.179 418.214 497.503C419.927 497.827 421.549 498.523 422.964 499.541C424.379 500.559 425.554 501.875 426.406 503.397L468.13 495.964L459.418 516.191L421.131 520.149C418.48 521.41 415.459 521.655 412.64 520.837C409.821 520.02 407.399 518.197 405.834 515.713C404.27 513.229 403.67 510.258 404.15 507.362C404.629 504.466 406.154 501.847 408.436 500H408.436Z" fill="#A0616A"/>
<path d="M451.579 517.707C455.24 521.491 458.838 521.037 462.384 517.109L512.036 514.364L512.189 514.075C512.364 513.744 522.828 493.923 532.109 475.371C533.538 472.515 534.939 469.688 536.27 466.967C536.845 465.793 537.405 464.64 537.952 463.509C541.636 455.88 544.572 449.431 545.719 446.043C548.372 438.46 548.351 430.199 545.661 422.63L545.584 422.447L545.411 422.347C541.887 420.329 537.78 419.572 533.767 420.201C529.755 420.83 526.076 422.808 523.339 425.808C510.198 440.364 500.621 457.775 495.363 476.666L492.384 487.415L461.653 495.028C458.517 493.336 455.813 493.756 453.686 497.001L451.579 517.707Z" fill="#E6E6E6"/>
<path d="M499.819 721.289L510.364 730.911L552.496 694.815L536.932 680.614L499.819 721.289Z" fill="#FFB6B6"/>
<path d="M500.27 715.391L503.239 718.099L519.127 723.961L521.038 734.341L521.039 734.341C524.548 737.544 526.642 742.01 526.859 746.757C527.076 751.503 525.399 756.142 522.196 759.652L521.804 760.082L487.802 729.056L500.27 715.391Z" fill="#2F2E41"/>
<path d="M579.705 608.993L570.603 591.417C571.363 573.621 586.799 559.717 604.523 561.491C614.393 562.479 623.452 568.356 626.67 584.944C634.945 627.6 535.11 712.028 535.11 712.028L517.771 700.403L517.383 688.788L527.548 683.031L527.923 673.151L537.566 669.007L579.705 608.993Z" fill="#2F2E41"/>
<path d="M579.963 378.046C581.401 363.086 570.439 349.792 555.479 348.354C540.519 346.916 527.225 357.877 525.787 372.838C524.348 387.798 535.31 401.092 550.271 402.53C565.231 403.969 578.525 393.007 579.963 378.046Z" fill="#A0616A"/>
<path d="M574.785 718.62L562.87 726.482L526.875 684.264L544.461 672.661L574.785 718.62Z" fill="#FFB6B6"/>
<path d="M585.445 728.165L547.025 753.515L546.704 753.029C544.088 749.063 543.153 744.22 544.107 739.565C545.061 734.911 547.825 730.825 551.791 728.208L551.792 728.207L555.296 718.253L571.904 714.937L575.257 712.724L585.445 728.165Z" fill="#2F2E41"/>
<path d="M520.326 607.288L531.592 588.971C533.613 571.274 520.532 555.135 502.748 554.126C492.844 553.565 482.98 557.959 477.217 573.843C462.399 614.689 547.863 713.638 547.863 713.638L566.801 704.856L568.994 693.443L559.85 686.173L561.019 676.355L552.139 670.76L520.326 607.288Z" fill="#2F2E41"/>
<path d="M562.183 381.928C562.208 381.577 562.233 381.225 562.256 380.873C562.14 381.212 562.114 381.576 562.183 381.928V381.928Z" fill="#2F2E41"/>
<path d="M585.597 369.331C584.622 364.864 582.448 360.747 579.309 357.423C576.17 354.099 572.184 351.694 567.78 350.466C566.572 348.444 564.927 346.718 562.964 345.415C561.002 344.113 558.773 343.266 556.441 342.938C552.061 342.355 547.671 343.654 543.46 344.992C540.858 345.819 538.263 346.667 535.675 347.536C533.567 348.244 530.977 349.859 531.677 351.969C531.145 351.692 530.536 351.598 529.945 351.702C529.355 351.807 528.815 352.104 528.41 352.546C528.006 352.989 527.759 353.553 527.708 354.151C527.657 354.749 527.805 355.347 528.129 355.851C527.152 354.591 524.893 355.399 524.349 356.898C523.806 358.398 524.446 360.059 525.241 361.441C527.633 365.373 531.262 368.4 535.559 370.049C539.856 371.698 544.578 371.874 548.986 370.552C551.564 369.708 554.199 368.323 556.84 368.942C559.333 369.526 561.127 371.837 561.837 374.297C562.355 376.448 562.497 378.673 562.256 380.873C562.592 380.092 563.224 379.476 564.014 379.16C564.803 378.845 565.685 378.855 566.467 379.189C568.35 380.127 569.026 382.603 568.56 384.654C568.093 386.706 563.199 394.661 561.906 396.32C560.489 397.886 559.447 399.754 558.858 401.781C563.498 401.068 568.138 400.354 572.779 399.641L573.031 399.894C580.225 394.303 587.417 378.259 585.597 369.331Z" fill="#2F2E41"/>
<path d="M518.926 560.992C519.568 559.371 520.558 557.911 521.825 556.714C523.093 555.517 524.607 554.612 526.263 554.064C527.918 553.515 529.673 553.336 531.404 553.54C533.136 553.743 534.802 554.324 536.285 555.24L569.158 528.49L571.359 550.403L539.805 572.447C538.099 574.836 535.577 576.517 532.715 577.17C529.853 577.824 526.851 577.405 524.277 575.993C521.704 574.581 519.738 572.274 518.751 569.51C517.765 566.745 517.827 563.714 518.926 560.992L518.926 560.992Z" fill="#A0616A"/>
<path d="M570.936 554.467C574.897 555.884 577.96 554.831 579.211 548.797L616.476 523.266L616.469 522.939C621.33 522.563 620.218 450.699 612.763 447.184C611.402 439.267 607.375 432.054 601.349 426.742L601.192 426.619L600.993 426.616C596.932 426.562 592.974 427.893 589.771 430.391C586.568 432.889 584.312 436.403 583.375 440.355C578.951 459.459 579.028 479.33 583.6 498.399L586.213 509.243L569.946 523.013C565.451 521.836 563.457 523.645 563.786 528.227L570.936 554.467Z" fill="#E6E6E6"/>
<path d="M286.67 616.187L279.72 618.926L336.327 762.561L343.277 759.822L286.67 616.187Z" fill="#E6E6E6"/>
<path d="M240.708 759.822L247.658 762.561L304.265 618.926L297.315 616.187L240.708 759.822Z" fill="#E6E6E6"/>
<path d="M289.087 642.439C316.363 642.439 338.475 633.892 338.475 623.348C338.475 612.805 316.363 604.257 289.087 604.257C261.812 604.257 239.7 612.805 239.7 623.348C239.7 633.892 261.812 642.439 289.087 642.439Z" fill="#E6E6E6"/>
<path d="M259.122 403.342C260.241 410.343 264.095 416.612 269.836 420.773C275.576 424.933 282.734 426.643 289.736 425.528C290.529 425.401 291.311 425.239 292.082 425.042C298.552 423.405 304.176 419.406 307.847 413.832C311.518 408.258 312.971 401.513 311.921 394.922C311.588 392.824 311.005 390.773 310.182 388.814C307.658 382.78 303.01 377.88 297.117 375.043C291.224 372.205 284.495 371.627 278.205 373.417C271.914 375.207 266.497 379.241 262.981 384.755C259.464 390.27 258.091 396.883 259.122 403.342H259.122Z" fill="#FFB6B6"/>
<path d="M403.257 741.338L415.264 737.768L407.322 688.687L389.601 693.957L403.257 741.338Z" fill="#FFB6B6"/>
<path d="M329.623 721.965C330.354 722.602 331.086 723.231 331.827 723.861C333.3 725.119 334.792 726.364 336.286 727.592C337.038 728.207 337.797 728.824 338.55 729.43L338.546 729.455L338.594 729.471L338.609 729.482L339.822 729.993L342.393 725.492L343.578 723.419L345.253 720.483L348.323 715.112L364.484 686.829L347.46 679.653L346.366 682.262L346.357 682.26L345.817 683.553L335.651 707.676L333.576 712.608L333.51 712.757L332.262 715.702L331.185 718.255L329.986 721.107L329.623 721.965Z" fill="#FFB6B6"/>
<path d="M240.673 599.566C241.511 601.547 242.374 603.525 243.248 605.487C244.872 609.139 246.56 612.751 248.314 616.323C248.312 616.331 248.321 616.333 248.328 616.342C249.454 617.774 250.744 619.07 252.17 620.203C252.228 620.263 252.296 620.307 252.356 620.359C253.408 621.179 254.558 621.866 255.78 622.405C256.221 622.593 256.67 622.781 257.111 622.969C258.704 623.625 260.291 624.221 261.875 624.774C264.696 625.75 267.512 626.577 270.323 627.255C270.549 627.316 270.776 627.369 271.003 627.422C282.598 630.141 294.238 630.564 306.518 630.181C312.581 629.998 318.801 629.614 325.243 629.214C327.349 629.077 329.462 628.949 331.599 628.826C331.76 628.817 331.931 628.802 332.1 628.796C335.154 628.615 338.256 628.451 341.43 628.307C345.425 628.124 349.54 627.986 353.804 627.914L352.583 633.712C351.625 638.17 349.988 642.454 347.73 646.415C345.139 651.316 343.088 655.193 344.696 664.196L345.468 668.554C344.403 670.488 343.802 672.643 343.71 674.85C343.619 677.056 344.04 679.253 344.941 681.269L345.159 681.749L328.497 709.961L327.417 711.79L333.508 712.755L341 713.95L353.699 715.961L377.845 682.103L379 680.487L379.014 680.397L388.309 609.453C388.384 608.826 388.434 608.187 388.451 607.551C388.566 604.666 388.104 601.786 387.094 599.081C386.084 596.376 384.546 593.899 382.568 591.795C380.675 589.764 378.398 588.131 375.868 586.988C373.338 585.846 370.606 585.218 367.831 585.141L361.431 584.959L348.355 584.586L339.143 584.328L338.959 584.324L311.794 583.551L311.117 575.461L310.785 575.274L300.229 569.391L263.718 549.044L263.625 548.996L261.223 547.658L260.842 548.102C260.728 548.235 260.615 548.368 260.51 548.503C257.274 552.621 254.468 557.06 252.134 561.748C248.247 569.396 244.799 577.259 241.807 585.299C241.676 585.648 241.558 585.966 241.454 586.252L241.415 586.338C241.369 586.473 241.338 586.561 241.326 586.584C239.843 590.165 239.746 594.805 240.673 599.566Z" fill="#2F2E41"/>
<path d="M243.161 573.273C243.367 572.767 243.607 572.259 243.853 571.769C245.774 568.063 247.898 564.466 250.215 560.994C252.825 557.037 255.868 552.839 259.414 548.333C261.13 546.15 262.961 543.889 264.909 541.547C265.885 540.374 266.895 539.181 267.939 537.968C267.981 537.911 268.026 537.857 268.074 537.804L268.374 537.448L305.912 548.655L316.894 552.795L319.616 560.078L319.542 561.873C319.55 561.875 319.55 561.875 319.541 561.882L319.354 566.776L319.352 566.785L319.11 573.251L319.177 573.253L340.804 573.863L363.092 574.494L375.064 574.836C377.839 574.912 380.571 575.54 383.101 576.682C385.631 577.824 387.909 579.458 389.801 581.489C391.778 583.594 393.316 586.071 394.326 588.776C395.337 591.481 395.798 594.36 395.684 597.246C395.667 597.831 395.622 598.429 395.555 599.015L402.469 626.994C406.607 643.728 408.196 660.99 407.183 678.198L411.189 705.431L410.017 705.354L392.564 704.228L387.954 703.935L380.265 687.75C379.389 685.905 378.578 684.021 377.848 682.107C376.641 678.978 375.636 675.776 374.837 672.52L361.356 617.608C359.638 617.631 357.939 617.641 356.258 617.641C348.48 617.67 341.041 617.52 333.941 617.191C310.856 616.131 291.182 613.217 274.035 608.299C269.219 606.923 264.597 605.384 260.169 603.682C258.544 603.064 256.945 602.421 255.373 601.755C255.002 601.604 254.639 601.454 254.278 601.296C251.028 599.885 248.184 597.682 246.006 594.888C243.827 592.094 242.385 588.799 241.81 585.303C241.105 581.246 241.574 577.072 243.161 573.273V573.273Z" fill="#2F2E41"/>
<path d="M400.899 733.155L413.891 729.28L415.929 728.67L417.778 736.577L438.16 744.57C439.168 744.964 440.024 745.671 440.602 746.586C441.18 747.501 441.45 748.577 441.373 749.656C441.296 750.736 440.875 751.763 440.173 752.586C439.471 753.41 438.524 753.987 437.47 754.234L415.502 759.386L409.885 752.454L410.239 760.619L401.964 762.561L397.74 734.101L400.899 733.155Z" fill="#2F2E41"/>
<path d="M328.497 709.961L327.417 711.79L328.188 711.912L328.497 709.961Z" fill="#2F2E41"/>
<path d="M332.328 712.995L344.286 719.384L346.164 720.384L341.914 727.303L350.773 747.324C351.212 748.314 351.323 749.418 351.09 750.474C350.856 751.531 350.291 752.486 349.477 753.199C348.662 753.912 347.641 754.345 346.563 754.437C345.484 754.528 344.405 754.272 343.482 753.706L324.248 741.909L325.134 733.031L319.64 739.082L312.394 734.64L329.418 711.445L332.328 712.995Z" fill="#2F2E41"/>
<path d="M415.971 557.837C414.699 558.227 413.357 558.332 412.04 558.147C410.723 557.962 409.462 557.49 408.347 556.765C407.232 556.04 406.289 555.079 405.586 553.95C404.882 552.822 404.434 551.552 404.274 550.232L372.673 543.384L384.684 531.634L412.852 539.938C415.088 539.816 417.291 540.519 419.044 541.913C420.797 543.307 421.977 545.296 422.362 547.502C422.746 549.708 422.308 551.979 421.13 553.884C419.952 555.789 418.117 557.195 415.971 557.837V557.837Z" fill="#FFB6B6"/>
<path d="M323.16 543.074L264.827 493.225C260.207 489.268 257.346 483.641 256.87 477.578C256.395 471.514 258.344 465.51 262.29 460.882V460.882C264.478 458.322 267.202 456.275 270.27 454.886C273.338 453.498 276.674 452.802 280.041 452.847C283.408 452.893 286.724 453.679 289.753 455.15C292.781 456.622 295.449 458.742 297.567 461.36L340.405 514.33L397.863 529.842L396.373 548.822L323.16 543.074Z" fill="#835741"/>
<path d="M255.129 491.897L253.894 537.141C236.892 565.866 234.958 579.814 239.664 587.251L318.575 560.713L319.753 557.9L314.404 538.684L321.022 517.826C322.188 515.646 338.01 502.256 323.178 476.856L293.34 436.66L282.552 435.792C278.611 445.908 272.6 450.927 265.499 453.26C249.441 467.978 251.8 470.373 255.129 491.897Z" fill="#835741"/>
<path d="M315.391 384.064C314.976 385.239 314.324 386.316 313.474 387.227C312.624 388.138 311.596 388.864 310.453 389.36C308.629 387.64 306.657 386.084 304.559 384.712C305.471 386.563 306.218 388.49 306.792 390.472C306.751 390.481 306.717 390.481 306.676 390.489C302.891 390.995 299.089 390.057 295.387 389.128L295.902 389.601C295.934 392.568 295.118 395.483 293.551 398.003C291.983 400.523 289.73 402.544 287.054 403.828C284.091 405.189 280.181 406.135 279.451 409.306C278.803 412.112 281.235 414.627 283.576 416.295C285.917 417.963 288.656 419.789 289.038 422.645C289.652 427.293 283.692 430.24 282.68 434.813C281.8 438.731 284.829 442.466 288.158 444.707C291.486 446.948 295.404 448.492 297.977 451.58C302.534 457.05 301.065 465.774 296.367 471.127C295.858 471.71 295.315 472.262 294.74 472.779C293.454 471.154 292.047 469.628 290.532 468.214C288.708 466.493 286.736 464.938 284.638 463.566C285.55 465.417 286.297 467.344 286.871 469.326C287.621 471.869 288.097 474.485 288.291 477.128C284.907 478.735 281.358 479.968 277.708 480.806C268.516 483.055 259.059 484.027 249.602 483.694C245.283 483.627 240.989 483.019 236.82 481.885C238.728 475.855 239.287 469.479 238.455 463.209C236.09 468.718 232.432 473.576 227.789 477.369C223.896 474.306 221.008 469.965 220.526 465.076C219.937 459.067 222.958 453.323 226.312 448.301C229.673 443.28 233.541 438.382 235.019 432.53C237.177 423.998 233.881 415.125 233.458 406.334C233.19 400.807 234.066 395.283 236.032 390.109C237.997 384.936 241.01 380.224 244.881 376.269C248.752 372.313 253.398 369.2 258.529 367.124C263.659 365.047 269.162 364.052 274.695 364.202C279.682 364.494 284.631 365.25 289.478 366.459C292.109 367.024 294.732 367.596 297.363 368.161C300.617 368.764 303.807 369.67 306.892 370.867C309.581 371.917 311.944 373.661 313.74 375.922C314.622 377.061 315.231 378.388 315.517 379.8C315.804 381.212 315.761 382.672 315.391 384.064Z" fill="#2F2E41"/>
<path d="M661.86 549.975H210.979V549.475C210.985 544.061 213.138 538.87 216.966 535.042C220.795 531.213 225.985 529.06 231.399 529.054H641.439C646.853 529.06 652.044 531.213 655.872 535.042C659.7 538.87 661.854 544.061 661.86 549.475V549.975Z" fill="#CCCCCC"/>
<path d="M695.214 759.945L688.264 762.795L631.656 546.824L638.607 543.973L695.214 759.945Z" fill="#CCCCCC"/>
<path d="M592.645 759.945L599.595 762.795L656.202 546.824L649.252 543.973L592.645 759.945Z" fill="#CCCCCC"/>
<path d="M279.364 759.945L272.414 762.795L215.807 546.824L222.757 543.973L279.364 759.945Z" fill="#CCCCCC"/>
<path d="M176.795 759.945L183.745 762.795L240.352 546.824L233.402 543.973L176.795 759.945Z" fill="#CCCCCC"/>
<path d="M487.861 513.249C487.996 512.843 488.043 512.412 487.997 511.987C487.952 511.561 487.816 511.15 487.599 510.781C487.381 510.412 487.087 510.095 486.737 509.849C486.386 509.603 485.987 509.436 485.566 509.357C485.411 509.324 485.252 509.304 485.093 509.298L465.904 508.803C465.473 508.799 465.047 508.884 464.651 509.055C464.256 509.226 463.901 509.477 463.609 509.793C463.34 509.736 463.066 509.707 462.791 509.708C462.193 509.693 461.599 509.795 461.04 510.009C460.482 510.224 459.972 510.546 459.539 510.958C459.105 511.37 458.757 511.863 458.515 512.409C458.272 512.956 458.139 513.544 458.124 514.142C458.109 514.74 458.212 515.334 458.427 515.892C458.642 516.45 458.965 516.96 459.377 517.393C459.789 517.826 460.283 518.174 460.829 518.416C461.376 518.658 461.965 518.79 462.563 518.804C463.25 518.818 463.932 518.678 464.558 518.394L466.324 537.271C466.493 537.892 466.86 538.441 467.367 538.836C467.875 539.231 468.497 539.452 469.14 539.464L481.615 539.785C482.254 539.797 482.879 539.605 483.402 539.239C483.926 538.873 484.319 538.35 484.527 537.746L487.861 513.249ZM462.603 517.502C461.741 517.48 460.924 517.117 460.33 516.492C459.737 515.868 459.415 515.034 459.435 514.173C459.455 513.312 459.816 512.494 460.438 511.898C461.06 511.303 461.894 510.978 462.755 510.996C462.816 510.996 462.87 511.025 462.931 511.025C462.794 511.546 462.797 512.095 462.94 512.614L464.196 517.113C463.71 517.385 463.159 517.52 462.603 517.502V517.502Z" fill="#835741"/>
<path d="M485.566 509.357C485.157 511.695 480.561 513.338 475.034 513.052C469.952 512.818 465.796 511.034 465.035 508.919C465.317 508.835 465.61 508.796 465.904 508.803L485.093 509.298C485.252 509.304 485.41 509.324 485.566 509.357Z" fill="white"/>
<path d="M423.948 505.778C424.083 505.372 424.13 504.942 424.084 504.516C424.039 504.09 423.903 503.679 423.686 503.311C423.468 502.942 423.174 502.624 422.824 502.378C422.473 502.133 422.074 501.965 421.653 501.887C421.497 501.853 421.339 501.834 421.18 501.828L401.991 501.332C401.56 501.328 401.133 501.414 400.738 501.585C400.343 501.755 399.988 502.007 399.695 502.323C399.427 502.265 399.153 502.237 398.878 502.238C397.672 502.209 396.505 502.659 395.631 503.491C394.758 504.322 394.25 505.466 394.22 506.672C394.19 507.877 394.639 509.045 395.47 509.919C396.301 510.794 397.444 511.302 398.65 511.334C399.337 511.348 400.019 511.208 400.645 510.924L402.411 529.801C402.58 530.421 402.946 530.97 403.454 531.366C403.962 531.761 404.584 531.981 405.227 531.994L417.702 532.315C418.34 532.326 418.966 532.135 419.489 531.768C420.012 531.402 420.406 530.879 420.613 530.275L423.948 505.778ZM398.689 510.032C397.828 510.009 397.011 509.646 396.417 509.022C395.824 508.398 395.501 507.564 395.522 506.703C395.542 505.841 395.903 505.023 396.525 504.428C397.147 503.832 397.98 503.508 398.842 503.525C398.903 503.526 398.956 503.554 399.017 503.555C398.881 504.076 398.884 504.624 399.027 505.144L400.283 509.642C399.797 509.914 399.246 510.049 398.689 510.032V510.032Z" fill="#835741"/>
<path d="M421.653 501.887C421.244 504.224 416.648 505.868 411.121 505.582C406.039 505.348 401.884 503.563 401.122 501.448C401.404 501.365 401.697 501.326 401.991 501.333L421.18 501.828C421.339 501.834 421.497 501.854 421.653 501.887V501.887Z" fill="white"/>
<path d="M414.54 537.601C413.316 538.122 411.992 538.368 410.663 538.323C409.334 538.277 408.03 537.94 406.845 537.336C405.66 536.732 404.622 535.876 403.803 534.827C402.985 533.778 402.406 532.563 402.109 531.266L369.963 527.776L380.674 514.829L409.558 520.129C411.769 519.773 414.034 520.24 415.923 521.442C417.813 522.645 419.195 524.498 419.809 526.652C420.424 528.806 420.226 531.11 419.255 533.128C418.284 535.146 416.606 536.738 414.54 537.601V537.601Z" fill="#FFB6B6"/>
<path d="M320.691 532.668L257.445 489.22C252.436 485.771 248.999 480.475 247.89 474.495C246.78 468.515 248.088 462.339 251.526 457.323V457.323C253.433 454.547 255.927 452.225 258.832 450.522C261.737 448.819 264.981 447.777 268.335 447.468C271.688 447.16 275.068 447.594 278.234 448.739C281.401 449.884 284.277 451.712 286.658 454.093L334.822 502.271L393.592 511.663L394.103 530.694L320.691 532.668Z" fill="#835741"/>
<path d="M880.941 764.193L1.19066 764.5C0.875467 764.499 0.573504 764.373 0.350952 764.15C0.1284 763.927 0.00341797 763.625 0.00341797 763.31C0.00341797 762.994 0.1284 762.692 0.350952 762.469C0.573504 762.246 0.875467 762.12 1.19066 762.119L880.941 761.812C881.256 761.812 881.559 761.937 881.783 762.16C882.006 762.384 882.131 762.686 882.131 763.002C882.131 763.318 882.006 763.621 881.783 763.844C881.559 764.067 881.256 764.193 880.941 764.193V764.193Z" fill="#CACACA"/>
<path d="M461.019 134.52C480.702 134.52 496.659 118.564 496.659 98.8802C496.659 79.1968 480.702 63.2402 461.019 63.2402C441.335 63.2402 425.379 79.1968 425.379 98.8802C425.379 118.564 441.335 134.52 461.019 134.52Z" fill="#FF6D00"/>
<path d="M540.789 82.0062C538.728 75.1015 532.905 70.5938 525.868 69.605C525.79 69.5941 525.717 69.6085 525.64 69.6035C525.54 69.573 525.438 69.5496 525.335 69.5334C515.367 68.3185 505.281 70.514 496.72 75.7622C488.47 80.9123 478.859 83.2416 469.141 83.6199C469.084 83.6222 469.027 83.6247 468.969 83.6276C465.357 83.8683 461.907 85.2162 459.089 87.488C456.271 89.7597 454.221 92.8448 453.218 96.3233C453.112 96.749 453.143 97.1977 453.309 97.6043C453.474 98.0108 453.765 98.3541 454.139 98.5844C455.215 99.4967 456.49 100.144 457.862 100.474C460.822 101.102 463.793 101.676 466.774 102.198C472.591 103.216 478.438 104.039 484.315 104.667C496.247 105.945 508.252 106.399 520.245 106.025C524.24 105.9 528.092 105.768 531.752 104.005C534.415 102.69 536.69 100.705 538.353 98.2445C539.92 95.88 540.951 93.2008 541.372 90.3955C541.793 87.5901 541.594 84.7266 540.789 82.0062V82.0062Z" fill="#F0F0F0"/>
<path d="M676.808 212.244C678.472 214.704 680.746 216.69 683.409 218.005C687.069 219.768 690.921 219.9 694.916 220.025C706.909 220.399 718.915 219.945 730.846 218.667C736.718 218.037 742.565 217.214 748.388 216.198C751.368 215.676 754.338 215.102 757.299 214.474C758.671 214.144 759.946 213.496 761.023 212.584C761.396 212.354 761.687 212.011 761.852 211.604C762.018 211.197 762.05 210.749 761.943 210.323C760.941 206.845 758.891 203.759 756.072 201.488C753.254 199.216 749.804 197.868 746.192 197.627C746.135 197.625 746.077 197.622 746.02 197.62C736.302 197.241 726.691 194.912 718.442 189.762C709.88 184.514 699.794 182.318 689.826 183.533C689.723 183.549 689.621 183.573 689.522 183.603C689.445 183.608 689.371 183.594 689.294 183.605C682.257 184.594 676.433 189.101 674.372 196.006C673.567 198.726 673.369 201.59 673.79 204.395C674.211 207.201 675.241 209.88 676.808 212.244V212.244Z" fill="#F0F0F0"/>
<path d="M466.714 129.526C464.653 122.621 458.829 118.114 451.792 117.125C451.715 117.114 451.641 117.128 451.564 117.124C451.465 117.093 451.363 117.07 451.26 117.053C441.292 115.839 431.206 118.034 422.644 123.282C414.395 128.432 404.784 130.762 395.067 131.14C395.009 131.142 394.952 131.145 394.894 131.148C391.282 131.388 387.832 132.736 385.014 135.008C382.195 137.28 380.145 140.365 379.143 143.843C379.037 144.269 379.068 144.718 379.234 145.124C379.399 145.531 379.69 145.874 380.063 146.104C381.14 147.017 382.415 147.664 383.787 147.995C386.747 148.622 389.717 149.196 392.698 149.718C398.515 150.736 404.363 151.559 410.24 152.187C422.172 153.465 434.177 153.919 446.17 153.545C450.165 153.42 454.017 153.288 457.677 151.525C460.34 150.21 462.615 148.225 464.278 145.765C465.845 143.4 466.876 140.721 467.297 137.915C467.717 135.11 467.519 132.247 466.714 129.526V129.526Z" fill="#F0F0F0"/>
</g>
<defs>
<clipPath id="clip0_55_159">
<rect width="882.131" height="764.5" fill="white"/>
</clipPath>
</defs>
</svg>
